<svg width="20" height="20" viewBox="0 0 20 20" xmlns="http://www.w3.org/2000/svg" fill="#000">
<g>
<path fill-rule="evenodd" clip-rule="evenodd" d="M16.8645 7.77779C17.0598 7.58253 17.3764 7.58253 17.5716 7.77779L19.5908 9.79693C19.6663 9.87245 19.7126 9.96612 19.7297 10.0639C19.7568 10.2189 19.7105 10.3843 19.5908 10.5041L17.5684 12.5265C17.3731 12.7218 17.0565 12.7218 16.8612 12.5265C16.666 12.3313 16.666 12.0147 16.8612 11.8194L18.0157 10.665H14.5C14.2239 10.665 14 10.4411 14 10.165C14 9.88886 14.2239 9.665 14.5 9.665H18.0446L16.8645 8.4849C16.6693 8.28964 16.6693 7.97306 16.8645 7.77779Z" stroke="none"/>
<path fill-rule="evenodd" clip-rule="evenodd" d="M3.13547 12.5266C2.94021 12.7218 2.62363 12.7218 2.42837 12.5266L0.409231 10.5075C0.333711 10.4319 0.287399 10.3383 0.270296 10.2405C0.243152 10.0854 0.28946 9.92004 0.40922 9.80028L2.43165 7.77785C2.62691 7.58259 2.94349 7.58259 3.13875 7.77785C3.33402 7.97312 3.33402 8.2897 3.13875 8.48496L1.98433 9.63938L5.5 9.63938C5.77614 9.63938 6 9.86324 6 10.1394C6 10.4155 5.77614 10.6394 5.5 10.6394L1.95537 10.6394L3.13547 11.8195C3.33073 12.0147 3.33073 12.3313 3.13547 12.5266Z" stroke="none"/>
<path fill-rule="evenodd" clip-rule="evenodd" d="M12.5266 16.8645C12.7219 17.0598 12.7219 17.3764 12.5266 17.5716L10.5075 19.5908C10.432 19.6663 10.3383 19.7126 10.2405 19.7297C10.0855 19.7568 9.9201 19.7105 9.80034 19.5908L7.77792 17.5684C7.58265 17.3731 7.58265 17.0565 7.77792 16.8612C7.97318 16.666 8.28976 16.666 8.48502 16.8612L9.63944 18.0157L9.63944 14.5C9.63944 14.2239 9.8633 14 10.1394 14C10.4156 14 10.6394 14.2239 10.6394 14.5L10.6394 18.0446L11.8195 16.8645C12.0148 16.6693 12.3314 16.6693 12.5266 16.8645Z" stroke="none"/>
<path fill-rule="evenodd" clip-rule="evenodd" d="M7.77779 3.13547C7.58253 2.94021 7.58253 2.62363 7.77779 2.42836L9.79693 0.409231C9.87245 0.333711 9.96612 0.287399 10.0639 0.270296C10.2189 0.243152 10.3843 0.28946 10.5041 0.409219L12.5265 2.43165C12.7218 2.62691 12.7218 2.94349 12.5265 3.13875C12.3313 3.33401 12.0147 3.33401 11.8194 3.13875L10.665 1.98433L10.665 5.5C10.665 5.77614 10.4411 6 10.165 6C9.88886 6 9.665 5.77614 9.665 5.5L9.665 1.95537L8.4849 3.13547C8.28964 3.33073 7.97306 3.33073 7.77779 3.13547Z" stroke="none"/>
</g>
</svg>
